<?xml version="1.0" encoding="utf-8"?>
<svg viewBox="7.31 0 724.582 971.261" style="enable-background:new 0 0 2340 2908.3;" xmlns="http://www.w3.org/2000/svg">
  <defs>
    <style type="text/css">
	.Drop_x0020_Shadow{fill:none;}
	.Round_x0020_Corners_x0020_2_x0020_pt{fill:#FFFFFF;stroke:#231F20;stroke-miterlimit:10;}
	.Live_x0020_Reflect_x0020_X{fill:none;}
	.Bevel_x0020_Soft{fill:url(#SVGID_1_);}
	.Dusk{fill:#FFFFFF;}
	.Foliage_GS{fill:#FFDD00;}
	.Pompadour_GS{fill-rule:evenodd;clip-rule:evenodd;fill:#44ADE2;}
	.st0{fill:#77E0B5;}
	.st1{fill:#4F3CC9;}
	.st2{fill:#FFFFFF;}
	.st3{fill:#F582AE;}
	.st4{fill:#CECECE;}
	.st5{opacity:0.5;}
</style>
  </defs>
  <g transform="matrix(1, 0, 0, 1, -775.507031, -6.439889)">
    <g id="Illustration" transform="matrix(0.697298, 0, 0, 0.721147, 327.512543, -1134.481079)" style="">
      <g>
        <g id="Cat_1_">
          <g>
            <g>
              <g>
                <path class="st0" d="M1079.1,2061.2c-0.8-1.3-20.2-32.1-23.3-76c-2.9-40.6,7.8-100.5,75.7-155l2.6-2.1 c32.9-26.2,48-47.1,27.4-76.4c-9.7-13.8-26.1-21.8-44-21.5c-10.8,0.2-20.7,2.8-29.5,7.6c-5.7,3.2-12.9,1.7-17-3.4l0,0 c-5.3-6.6-3.5-16.4,3.9-20.4c12.7-6.9,27-10.7,42.1-11c26.9-0.5,52,11.8,66.9,33.1c16.8,24,18.7,49.1,5.5,72.7 c-10.2,18.3-27.1,31.7-38.3,40.7l-2.5,2c-47.1,37.8-69.2,82.1-65.6,131.7c2.7,37.1,19,63,19.1,63.3L1079.1,2061.2z"/>
              </g>
              <g>
                <path class="st1" d="M1077.8,2067.4l-2.4-3.8c-0.8-1.3-20.8-33.1-24-78.1c-3-41.7,8-103.1,77.4-158.8l2.6-2.1 c36.4-29,43.1-46.7,26.5-70.3c-8.8-12.5-23.9-19.8-40.3-19.6c-10,0.2-19.3,2.6-27.5,7.1c-7.6,4.2-17.2,2.3-22.7-4.5 c-3.4-4.2-4.8-9.7-3.7-15c1-5.2,4.3-9.7,8.9-12.2c13.4-7.4,28.3-11.3,44.2-11.6c28.6-0.6,54.9,12.6,70.7,35 c17.8,25.5,19.8,52.3,5.8,77.5c-10.6,19.1-28,32.9-39.4,42l-2.5,2c-45.9,36.8-67.4,79.8-63.9,127.9 c2.6,35.7,18.3,61,18.5,61.2l2.4,3.8L1077.8,2067.4z M1118.4,1725.8c19.1,0,36.5,8.7,46.8,23.4 c22.5,32.1,5.8,55.3-28.3,82.5l-2.6,2.1c-66.4,53.3-76.9,111.6-74.1,151.1c2.5,34.4,15.1,60.5,20.4,70l15.5-9.9 c-4.7-8.8-15.5-31.7-17.6-61.5c-3.7-51.2,18.9-96.8,67.3-135.6l2.5-2c10.9-8.7,27.4-21.8,37.2-39.3 c12.3-22,10.4-45.5-5.3-68c-14-20-37.6-31.6-63.1-31.2c-14.4,0.3-27.9,3.8-40,10.5c-2.3,1.3-3.9,3.5-4.4,6.1 c-0.5,2.7,0.2,5.5,1.9,7.6c2.8,3.4,7.6,4.4,11.4,2.3c9.5-5.2,20.1-8,31.6-8.2C1117.8,1725.8,1118.1,1725.8,1118.4,1725.8z"/>
              </g>
            </g>
          </g>
          <g>
            <g>
              <path class="st0" d="M1015.5,1981.8l-4.5-87.9c-0.7-14.6-13.2-25.8-27.7-25c-14.6,0.7-25.8,13.2-25,27.7l4.5,88.4l-15.3,178 c0,0,74.3,29.1,105.6-8.5C1080.8,2121.2,1070,2024,1015.5,1981.8z"/>
            </g>
            <g>
              <path class="st1" d="M1003.4,2178.2c-28.6,0-55.7-10.4-57.5-11.1l-3.1-1.2l15.5-181l-4.5-88.1c-0.4-8.2,2.4-16.2,7.9-22.3 c5.5-6.1,13.1-9.7,21.4-10.1c8.2-0.4,16.2,2.4,22.3,7.9c6.1,5.5,9.7,13.1,10.1,21.4l4.4,85.9c27.6,22.3,46.8,60.8,51.4,103.4 c3.4,31.4-2.1,59.1-14.7,74.3C1043.2,2173.3,1023,2178.2,1003.4,2178.2z M952.3,2159.9c14.1,4.8,72.1,22.1,97.4-8.3 c11.1-13.3,15.8-38.6,12.7-67.6c-4.5-41.1-23-78-49.6-98.6l-1.6-1.3l-4.6-90c-0.3-5.8-2.9-11.2-7.2-15.2 c-4.3-3.9-10-5.9-15.8-5.6c-5.8,0.3-11.2,2.9-15.2,7.2c-3.9,4.3-5.9,10-5.6,15.8l4.5,88.7l0,0.3L952.3,2159.9z"/>
            </g>
          </g>
          <g>
            <g>
              <path class="st0" d="M1240.6,2100l-4.8-94.4c-0.7-14.6-13.2-25.8-27.7-25l0,0c-14.6,0.7-25.8,13.2-25,27.7l4.8,94.4 L1240.6,2100z"/>
            </g>
            <g>
              <path class="st1" d="M1183.6,2107.4l-5-98.9c-0.9-17,12.3-31.6,29.3-32.4c17-0.9,31.6,12.3,32.4,29.3l5,98.9L1183.6,2107.4z M1209.4,1985c-0.4,0-0.8,0-1.1,0c-12.1,0.6-21.4,10.9-20.8,23l4.6,90l43.8-2.2l-4.6-90C1230.7,1994.1,1221,1985,1209.4,1985 z"/>
            </g>
          </g>
          <g>
            <g>
              <rect x="1217.3" y="1982.4" transform="matrix(0.9987 -5.095094e-02 5.095094e-02 0.9987 -100.4865 64.7779)" class="st1" width="6" height="41.9"/>
            </g>
          </g>
          <g>
            <g>
              <rect x="1201.9" y="1980.7" transform="matrix(0.9987 -5.093234e-02 5.093234e-02 0.9987 -100.3616 63.9629)" class="st1" width="6" height="40.9"/>
            </g>
          </g>
          <g>
            <g>
              <rect x="970.4" y="1871.8" transform="matrix(0.9987 -5.093356e-02 5.093356e-02 0.9987 -95.1385 52.0361)" class="st1" width="6" height="41.9"/>
            </g>
          </g>
          <g>
            <g>
              <rect x="985.6" y="1868.6" transform="matrix(0.9987 -5.095014e-02 5.095014e-02 0.9987 -94.9609 52.8218)" class="st1" width="6" height="40.9"/>
            </g>
          </g>
          <g>
            <g>
              <path class="st2" d="M1328.1,2541.6c-4.8-28.6-16.6-55.6-34.1-78.7c-26.1-34.6-36.4-52.9-36.4-52.9l-133.8-0.7v-0.2 l-16.2,0.1l-16.2-0.1v0.2l-133.8,0.7c0,0-10.3,18.2-36.4,52.9c-17.5,23.1-29.3,50.1-34.1,78.7 c-9.6,57.8-3.7,169.1,69.6,240.7c0,0,23.8,29.7,140.6,25.3c6.8-0.3,13.7-0.3,20.5,0c116.8,4.4,140.6-25.3,140.6-25.3 C1331.8,2710.7,1337.7,2599.4,1328.1,2541.6z"/>
            </g>
            <g>
              <path class="st1" d="M1140.5,2812.5c-7.2,0-14.7-0.1-22.7-0.4c-6.7-0.2-13.5-0.2-20.1,0c-113.2,4.2-141.1-23.5-144-26.7 c-75.6-74-80.1-188.5-70.7-244.5c4.8-28.9,16.9-56.8,34.9-80.7c25.6-33.9,36-52.2,36.1-52.4l1.3-2.3l131.9-0.7v-0.2l20.7,0.1 l20.6-0.1v0.2l131.9,0.7l1.3,2.3c0.1,0.2,10.5,18.5,36.1,52.4c18,23.9,30.1,51.8,34.9,80.7l0,0c9.3,56,4.9,170.5-70.7,244.5 C1259.1,2788.4,1234.8,2812.5,1140.5,2812.5z M960.3,2414.5c-3.5,5.9-14.3,23.1-35.4,51.1c-17.2,22.7-28.6,49.3-33.2,76.8 c-9,54.3-4.8,165.3,68.3,236.8l0.4,0.4c0.2,0.2,25,27.8,136.9,23.6c6.9-0.3,13.9-0.3,20.8,0c111.9,4.2,136.7-23.4,136.9-23.7 l0.3-0.4c73.1-71.4,77.3-182.4,68.3-236.8c-4.6-27.5-16.1-54-33.2-76.8c-21.1-28-31.9-45.2-35.4-51.1l-135.7-0.7v-0.1 l-11.7,0.1l-11.7-0.1v0.1L960.3,2414.5z"/>
            </g>
          </g>
          <g>
            <g>
              <path class="st1" d="M971.5,2733.8l-2-8.7c6.9-1.6,171.2-39.1,275.2,0.2l-3.2,8.4C1140.1,2695.4,973.2,2733.5,971.5,2733.8z"/>
            </g>
          </g>
          <g>
            <g>
              <path class="st1" d="M1283.3,2526.6c-3.3-8.4-7.2-16.8-11.7-25l7.9-4.3c4.6,8.5,8.7,17.2,12.2,26L1283.3,2526.6z"/>
            </g>
          </g>
          <g>
            <g>
              <path class="st1" d="M1274.2,2639.5l-8.9-0.7c1.8-23.4-0.9-46.3-8-68.1l8.5-2.8C1273.3,2590.8,1276.1,2614.9,1274.2,2639.5z"/>
            </g>
          </g>
          <g>
            <g>
              <path class="st0" d="M987.6,2054.7c0,0-121,69.9-44.3,303.3c0,0-1.7,107.3,23.9,167c0,0-15.3,52.8-6.8,90.3 c0,0,66.5-10.2,90.3-39.2c0,0,71.6,18.7,126.1,0c0,0,42.6,22.2,73.3,22.2c0,0,1.7-30.7-6.8-81.8c0,0,20.4-93.7,11.9-153.4 c0,0,52.8-170.4-10.2-270.9C1244.9,2092.2,1149.4,1972.9,987.6,2054.7z"/>
            </g>
            <g>
              <path class="st1" d="M956.8,2620.4l-0.9-4.1c-8-35,3.9-81.8,6.4-91c-24.2-58.1-23.7-156.2-23.6-166.6 c-17.5-53.4-26-102.8-25.4-146.6c0.5-35.4,7-67.4,19.2-95.1c21-47.4,51.5-65.4,52.8-66.2l0.2-0.1 c85.2-43,152.1-30.3,193.2-12c44.6,19.8,68.6,49.5,69.6,50.7l0.3,0.4c33.2,53,34.3,124.9,29.4,176 c-4.9,50.4-16.4,91-18.4,97.7c7.9,57.4-9.8,143.1-11.9,153.1c8.3,50.5,6.8,80.7,6.7,81.9l-0.2,4.2h-4.2 c-28.2,0-65.2-17.6-73.6-21.8c-49.5,16.2-110.5,3.4-124.2,0.2c-25.9,28.3-88.5,38.2-91.2,38.6L956.8,2620.4z M989.7,2058.6 c-1.8,1.1-30,18.8-49.2,62.6c-18.3,41.8-32,116.5,7,235.3l0.2,0.7l0,0.8c0,1.1-1.4,107.1,23.5,165.2l0.6,1.5l-0.4,1.5 c-0.1,0.5-13.8,48.3-7.6,83.9c14.8-2.8,64.2-13.6,83.3-36.9l1.8-2.2l2.8,0.7c0.7,0.2,70.9,18.2,123.5,0.1l1.8-0.6l1.7,0.9 c0.4,0.2,38,19.6,66.8,21.5c0.1-10.1-0.4-37.3-6.9-76.4l-0.1-0.9l0.2-0.8c0.2-0.9,20.2-93.6,11.9-151.8l-0.1-1l0.3-1 c0.5-1.7,51.4-169.3-9.6-267c-2.1-2.5-25.5-30-66.5-48.1C1117.6,2021.5,1055.4,2025.5,989.7,2058.6z M989.8,2058.6 L989.8,2058.6L989.8,2058.6z"/>
            </g>
          </g>
          <g>
            <g>
              <path class="st1" d="M1043,2559.4c-1.2,0-2-0.1-2.1-0.1l-0.5,0l-0.4-0.1c-41.3-12.6-61.9-126.5-62.7-131.3l8.8-1.6 c5.5,31.3,26.3,114.3,56,124.1c2.2,0.1,12.8,0.1,18-6.8c4.5-5.9,4.2-16.2-0.8-29.8l-0.1-0.3c-0.5-1.6-12.1-40.3-12.1-78h9 c0,35.4,11,72.9,11.7,75.3c6.2,16.8,6,29.7-0.5,38.3C1060,2558.4,1047.9,2559.4,1043,2559.4z"/>
            </g>
          </g>
          <g>
            <g>
              <path class="st1" d="M1207.4,2555.1c-1.4,0-2.3-0.1-2.4-0.1l-0.2,0c-8-1.6-14-5.5-18-11.6c-7.5-11.6-4.8-27-4.3-29.3 c4.9-43.1,0-76.7,0-77l8.9-1.3c0.2,1.4,5.1,35.2,0,79.6l-0.1,0.5c0,0.1-2.9,13.7,3,22.7c2.6,4,6.6,6.5,12.1,7.7 c0.7,0.1,8.2,0.7,16.7-6.4c10.4-8.8,23.3-30.1,25.3-82.2l9,0.4c-1.8,44.8-11.5,74.7-28.9,89 C1219.7,2554.1,1211.3,2555.1,1207.4,2555.1z"/>
            </g>
          </g>
          <g>
            <g>
              <ellipse transform="matrix(0.9987 -5.093997e-02 5.093997e-02 0.9987 -124.8045 60.6899)" class="st1" cx="1128.2" cy="2478.8" rx="14.5" ry="10.2"/>
            </g>
          </g>
          <g>
            <g>
              <path class="st1" d="M1124.3,2473.7c-0.1-13.4,3.7-24,11.4-31.4c11.8-11.4,28.2-10.8,28.9-10.7l-0.4,9 c-0.1,0-13.4-0.4-22.3,8.3c-5.8,5.6-8.7,14-8.6,24.8L1124.3,2473.7z"/>
            </g>
          </g>
          <g>
            <g>
              <path class="st1" d="M1122.7,2474.1c-1-10.8-4.8-18.9-11.2-23.9c-9.9-7.8-22.8-6-23-5.9l-1.3-8.9c0.7-0.1,16.9-2.4,29.8,7.8 c8.4,6.6,13.3,16.7,14.6,30.1L1122.7,2474.1z"/>
            </g>
          </g>
          <g>
            <g>
              <path class="st2" d="M945.6,2359.2c38.4,1.7,226.8,4.8,306.6,0.7c3.8-0.2,7.1,2.4,7.1,6.3v37.4c0,6.3-5.1,11.5-11.5,11.5 H950.5c-6.3,0-11.5-5.1-11.5-11.5v-38C939,2361.9,942,2359,945.6,2359.2z"/>
            </g>
            <g>
              <path class="st1" d="M1247.9,2419.5H950.5c-8.8,0-16-7.2-16-16v-38c0-2.9,1.2-5.8,3.3-7.8c2.1-2.1,5-3.1,7.9-3 c40,1.8,228.4,4.7,306.2,0.7c3.2-0.2,6.3,1,8.6,3.1c2.1,2,3.3,4.7,3.3,7.7v37.4C1263.8,2412.3,1256.7,2419.5,1247.9,2419.5z M945.3,2363.6c-0.6,0-1.1,0.3-1.3,0.5c-0.2,0.2-0.6,0.6-0.6,1.3v38c0,3.9,3.1,7,7,7h297.4c3.9,0,7-3.1,7-7v-37.4 c0-0.5-0.2-0.8-0.5-1.2c-0.5-0.4-1.2-0.7-1.9-0.6C1174.4,2368.4,985.5,2365.5,945.3,2363.6L945.3,2363.6 C945.4,2363.6,945.3,2363.6,945.3,2363.6z"/>
            </g>
          </g>
          <g>
            <g>
              <path class="st1" d="M1134.1,2383.8c-76.9,0-182.8-2.5-184.2-2.5l0.2-9c1.8,0,180.3,4.2,241.7,1.7l0.4,9 C1177.9,2383.5,1157.3,2383.8,1134.1,2383.8z"/>
            </g>
          </g>
          <g>
            <g>
              <path class="st1" d="M1109.8,2404.1c-55.9,0-104.4-0.7-105.3-0.7l0.1-9c1.6,0,165.1,2.5,238.2-1.7l0.5,9 C1209.8,2403.6,1157.1,2404.1,1109.8,2404.1z"/>
            </g>
          </g>
          <g>
            <g>
              <circle class="st1" cx="1083.6" cy="2511.4" r="12.8"/>
            </g>
          </g>
          <g>
            <g>
              <circle class="st1" cx="1169.9" cy="2511.4" r="12.8"/>
            </g>
          </g>
          <g>
            <g>
              <circle class="st1" cx="1029.3" cy="2669" r="5.1"/>
            </g>
          </g>
          <g>
            <g>
              <circle class="st1" cx="1014.8" cy="2647.7" r="7.7"/>
            </g>
          </g>
          <g>
            <g>
              <path class="st1" d="M891.2,2651.7l-4-8l13.7-6.7c6.9-3.4,15.1-2.7,21.4,1.8l1.2,0.9c4.2,3,9.7,3,13.9,0 c7-5.1,16.5-5.3,23.7-0.5l2.3,1.6c3.8,2.5,8.8,2.6,12.7,0.2l13.3-8.2l4.7,7.6l-13.3,8.2c-6.9,4.2-15.7,4.1-22.4-0.4l-2.3-1.6 c-4.1-2.7-9.5-2.6-13.5,0.3c-7.3,5.3-17.1,5.3-24.4,0l-1.2-0.9c-3.5-2.6-8.2-3-12.1-1L891.2,2651.7z"/>
            </g>
          </g>
          <g>
            <g>
              <path class="st1" d="M1226.8,2655.1l-4-8l13.7-6.7c6.9-3.4,15.1-2.7,21.4,1.8l1.2,0.9c4.1,3,9.7,3,13.9,0 c7-5.1,16.5-5.3,23.7-0.5l2.3,1.6c3.8,2.5,8.8,2.6,12.7,0.2l13.3-8.2l4.7,7.6l-13.3,8.2c-6.9,4.2-15.7,4.1-22.4-0.4l-2.3-1.6 c-4.1-2.7-9.5-2.6-13.5,0.3c-7.3,5.3-17.1,5.3-24.4,0l-1.2-0.9c-3.5-2.6-8.2-3-12.1-1L1226.8,2655.1z"/>
            </g>
          </g>
        </g>
        <g id="Stars_1_">
          <g>
            <g>
              <path class="st1" d="M797.8,2358.3l-15.9-3.5l-3.6-15.9c-0.1-0.6-0.6-1-1.2-1s-1.1,0.4-1.2,1l-3.6,15.9l-15.9,3.8 c-0.6,0.1-1,0.6-0.9,1.2c0,0.6,0.4,1.1,1,1.2l15.9,3.5l3.6,15.9c0.1,0.6,0.6,1,1.2,1s1.1-0.4,1.2-1l3.6-15.9l15.9-3.8 c0.6-0.1,1-0.6,0.9-1.2C798.7,2358.9,798.3,2358.4,797.8,2358.3z"/>
            </g>
          </g>
          <g>
            <g>
              <path class="st1" d="M1405.9,2101.3l-15.9-3.5l-3.6-15.9c-0.1-0.6-0.6-1-1.2-1c-0.6,0-1.1,0.4-1.2,1l-3.6,15.9l-15.9,3.8 c-0.6,0.1-1,0.6-0.9,1.2c0,0.6,0.4,1.1,1,1.2l15.9,3.5l3.6,15.9c0.1,0.6,0.6,1,1.2,1c0.6,0,1.1-0.4,1.2-1l3.6-15.9l15.9-3.8 c0.6-0.1,1-0.6,0.9-1.2S1406.4,2101.4,1405.9,2101.3z"/>
            </g>
          </g>
          <g>
            <g>
              <path class="st1" d="M717.5,2294.7l-8.2-1.8l-1.9-8.2c-0.1-0.3-0.3-0.5-0.6-0.5s-0.6,0.2-0.6,0.5l-1.9,8.2l-8.2,1.9 c-0.3,0.1-0.5,0.3-0.5,0.6c0,0.3,0.2,0.6,0.5,0.6l8.2,1.8l1.9,8.2c0.1,0.3,0.3,0.5,0.6,0.5s0.6-0.2,0.6-0.5l1.9-8.2l8.2-1.9 c0.3-0.1,0.5-0.3,0.5-0.6C718,2295,717.8,2294.7,717.5,2294.7z"/>
            </g>
          </g>
        </g>
        <g id="Fish_1_">
          <g>
            <g>
              <path class="st1" d="M1100.8,2720.4c0,0-3.1,17.6,6.2,30.9c0,0,25.3-5.5,13.7-34.8L1100.8,2720.4z"/>
            </g>
          </g>
          <g>
            <g>
              <path class="st3" d="M1112.5,2719.7c0,0-0.7,41.2,25.8,58.4c0,0,16.1-35.5-13-61.5L1112.5,2719.7z"/>
            </g>
            <g>
              <path class="st1" d="M1140.3,2784.6l-4.4-2.8c-28.3-18.3-27.9-60.4-27.8-62.2l0.1-3.5l18.5-4.5l1.8,1.6 c31.2,27.9,14.3,66.3,14.1,66.7L1140.3,2784.6z M1117.1,2723.2c0.5,9,3.3,33.7,19,47.6c2.8-10,6.1-31.6-12.1-49.3 L1117.1,2723.2z"/>
            </g>
          </g>
          <g>
            <g>
              <path class="st3" d="M1150.3,2698.8c0,0,25.3-29.9,64.3-29.9c0,0,8.3,21.5-28.9,41.4c0,0,13.5,26.9,9.9,48.7 c0,0-28.4-6.4-45.9-44.7L1150.3,2698.8z"/>
            </g>
            <g>
              <path class="st1" d="M1199.3,2764.5l-4.6-1c-1.2-0.3-30.8-7.3-49-47.2l-0.4-1l0.8-18.2l1-1.2c1.1-1.3,27.1-31.4,67.7-31.4 h3.1l1.1,2.9c0.4,1,8.7,23.9-27.3,44.9c3.7,8.5,11.5,29.4,8.5,47.5L1199.3,2764.5z M1154.2,2713.5 c12.1,25.8,29.2,35.9,37.5,39.5c0.7-19-9.9-40.3-10-40.6l-2-3.9l3.8-2.1c25.3-13.6,27.7-27.1,27.3-32.9 c-30.3,1.6-51.5,22.1-56.2,27.1L1154.2,2713.5z"/>
            </g>
          </g>
          <g>
            <g>
              <path class="st3" d="M1092.9,2654c0,0,20.7-32.3,57.1-10.4c4,2.4,4,8.2-0.1,10.6c-5.9,3.5-12.5,10.9-14.5,27.1L1092.9,2654z"/>
            </g>
            <g>
              <path class="st1" d="M1139,2688.8l-52.2-33.5l2.4-3.8c0.2-0.4,23.5-35.7,63.2-11.8c3.2,2,5.2,5.4,5.1,9.2 c0,3.8-2,7.2-5.3,9.1c-6.6,3.9-10.9,12.1-12.4,23.8L1139,2688.8z M1099.5,2652.8l32.7,21c3.2-13.7,10-20.3,15.5-23.5 c0.7-0.4,0.8-1.1,0.8-1.5c0-0.4-0.1-1-0.8-1.4C1122.2,2632.1,1105.7,2645.8,1099.5,2652.8z"/>
            </g>
          </g>
          <g>
            <g>
              <path class="st3" d="M1041.2,2679.7c-0.6,7,18.4,56.1,73,45.2c4.1-0.8,7.1-3.1,14.8-6.4c4.8-2,16.1-2,20.5-2 c0,0,7.8-8.3,4.7-21.7c0,0-12.8-7.9-22.3-24.3c0,0-21.3-32.8-57.3-14.1C1057.1,2665.5,1042,2671.2,1041.2,2679.7z"/>
            </g>
            <g>
              <path class="st1" d="M1099.1,2730.9c-19.9,0-33.6-8.1-42.2-15.8c-14.2-12.8-20.6-30.1-20.1-35.8c0.9-9.4,11.6-14.8,26.6-22.2 c2.9-1.5,6-3,9.2-4.7c39.1-20.4,62.9,15.3,63.1,15.6l0.1,0.2c8.8,15.3,20.7,22.7,20.8,22.8l1.6,1l0.4,1.8 c3.6,15.5-5.4,25.4-5.8,25.8l-1.3,1.4h-2.1c0,0,0,0,0,0c-9.7,0-16,0.6-18.5,1.7c-3,1.3-5.2,2.4-7.1,3.3 c-3.1,1.5-5.6,2.8-8.6,3.4C1109.4,2730.4,1104.1,2730.9,1099.1,2730.9z M1045.7,2680c0,2.4,4.6,17.7,18.5,29.5 c13.2,11.1,29.7,14.8,49.2,10.9c1.9-0.4,3.6-1.2,6.4-2.6c1.9-1,4.4-2.2,7.5-3.5c4.5-1.9,12.4-2.3,20-2.4 c1.5-2.3,4-7.4,2.9-14.5c-4-2.8-14.1-10.9-22.1-24.7c-1.3-2-20.1-28.8-51.4-12.5c-3.2,1.7-6.4,3.2-9.4,4.7 C1056.4,2670.5,1046.2,2675.6,1045.7,2680z"/>
            </g>
          </g>
          <g>
            <g>
              <ellipse transform="matrix(0.6323 -0.7747 0.7747 0.6323 -1680.5277 1811.3134)" class="st1" cx="1068" cy="2676.2" rx="6.1" ry="6.1"/>
            </g>
          </g>
        </g>
        <g id="Sad_icon_1_">
          <g>
            <g>
              <path class="st2" d="M1533.7,2193.5c-73.6-13.3-144.1,35.6-157.4,109.2c-6.2,34.5,1.2,68.3,18.4,95.8l-32.4,58.4l66-21.8 c16.4,12.3,35.7,21.1,57.3,25c73.6,13.3,144.1-35.6,157.4-109.2C1656.2,2277.3,1607.3,2206.8,1533.7,2193.5z"/>
            </g>
            <g>
              <path class="st1" d="M1352.7,2464.7l36.7-66.1c-17.4-29.1-23.6-63.3-17.6-96.7c13.7-75.9,86.7-126.5,162.6-112.8 c75.9,13.7,126.5,86.7,112.8,162.6c-13.7,75.9-86.7,126.5-162.6,112.8c-20.9-3.8-40.2-12-57.3-24.4L1352.7,2464.7z M1532.9,2197.9c-71.1-12.9-139.3,34.5-152.2,105.6c-5.8,32.1,0.5,65,17.8,92.6l1.4,2.2l-28.1,50.7l57.3-18.9l1.9,1.4 c16.4,12.4,35.1,20.5,55.4,24.2c71.1,12.9,139.3-34.5,152.2-105.6C1651.3,2279.1,1603.9,2210.8,1532.9,2197.9z"/>
            </g>
          </g>
          <g>
            <path class="st1" d="M1574.2,2380.2c-29.6-25.7-61-33.6-93.2-23.3c-24.1,7.7-39.7,23-39.8,23.1l-6.3-6.3 c0.7-0.7,17.2-17,43.4-25.3c24.3-7.7,61.7-9.6,101.8,25.1L1574.2,2380.2z"/>
          </g>
          <g>
            <path class="st1" d="M1462.9,2315.6c-10.3,0-18.7-8.4-18.7-18.7s8.4-18.7,18.7-18.7c10.3,0,18.7,8.4,18.7,18.7 S1473.2,2315.6,1462.9,2315.6z M1462.9,2287.2c-5.4,0-9.7,4.4-9.7,9.7c0,5.4,4.4,9.7,9.7,9.7s9.7-4.4,9.7-9.7 C1472.6,2291.5,1468.2,2287.2,1462.9,2287.2z"/>
          </g>
          <g>
            <path class="st1" d="M1548,2315.6c-10.3,0-18.7-8.4-18.7-18.7s8.4-18.7,18.7-18.7c10.3,0,18.7,8.4,18.7,18.7 S1558.3,2315.6,1548,2315.6z M1548,2287.2c-5.4,0-9.7,4.4-9.7,9.7c0,5.4,4.4,9.7,9.7,9.7s9.7-4.4,9.7-9.7 C1557.7,2291.5,1553.4,2287.2,1548,2287.2z"/>
          </g>
        </g>
      </g>
    </g>
  </g>
</svg>